<svg width="89" height="36" viewBox="0 0 89 36" fill="none" xmlns="http://www.w3.org/2000/svg">
    <path d="M1.078 17.504c0-3.016.809-5.34 2.426-6.973C4.91 9.11 6.699 8.398 8.87 8.398c2.906 0 5.031.954 6.375 2.86.742 1.07 1.14 2.144 1.195 3.223h-3.609c-.234-.829-.535-1.454-.902-1.876-.657-.75-1.63-1.125-2.918-1.125-1.313 0-2.348.532-3.106 1.594-.758 1.055-1.136 2.551-1.136 4.489 0 1.937.398 3.39 1.195 4.359.805.96 1.824 1.441 3.058 1.441 1.266 0 2.23-.414 2.895-1.242.367-.445.672-1.113.914-2.004h3.574c-.312 1.883-1.113 3.414-2.402 4.594-1.281 1.18-2.926 1.77-4.934 1.77-2.484 0-4.437-.797-5.86-2.391-1.42-1.602-2.132-3.797-2.132-6.586zm21.152-4.277v7.699c0 .726.086 1.273.258 1.64.305.649.903.973 1.793.973 1.14 0 1.922-.46 2.344-1.383.219-.5.328-1.16.328-1.98v-6.95h3.387V26h-3.246v-1.805c-.032.04-.11.157-.235.352a2.354 2.354 0 0 1-.445.515c-.523.47-1.031.79-1.523.961-.485.172-1.055.258-1.711.258-1.89 0-3.164-.68-3.82-2.039-.368-.75-.551-1.855-.551-3.316v-7.7h3.421zm18.973 4.582a2.964 2.964 0 0 0-.48-1.29c-.375-.515-.957-.773-1.746-.773-1.125 0-1.895.559-2.309 1.676-.219.594-.328 1.383-.328 2.367 0 .938.11 1.691.328 2.262.398 1.062 1.148 1.594 2.25 1.594.781 0 1.336-.211 1.664-.633.328-.422.527-.969.598-1.64h3.41c-.078 1.015-.446 1.976-1.102 2.882-1.047 1.46-2.597 2.191-4.652 2.191s-3.566-.61-4.535-1.828c-.969-1.219-1.453-2.8-1.453-4.746 0-2.195.535-3.902 1.605-5.121 1.07-1.219 2.547-1.828 4.43-1.828 1.601 0 2.91.36 3.926 1.078 1.023.719 1.629 1.988 1.816 3.809h-3.422zm5.695-9.024h3.282v9.305l4.16-4.805h4.137l-4.465 4.887L58.652 26h-4.03l-3.06-5.46-1.382 1.44V26h-3.282V8.785zm19.125 14.86c.977 0 1.727-.348 2.25-1.043.524-.696.786-1.684.786-2.965 0-1.282-.262-2.266-.786-2.953-.523-.696-1.273-1.043-2.25-1.043-.976 0-1.73.347-2.261 1.043-.524.687-.785 1.671-.785 2.953 0 1.281.261 2.27.785 2.965.531.695 1.285 1.043 2.261 1.043zm6.54-4.008c0 1.875-.54 3.48-1.618 4.816-1.078 1.328-2.714 1.992-4.91 1.992-2.195 0-3.832-.664-4.91-1.992-1.078-1.336-1.617-2.941-1.617-4.816 0-1.844.539-3.442 1.617-4.793 1.078-1.352 2.715-2.028 4.91-2.028 2.196 0 3.832.676 4.91 2.028 1.078 1.351 1.618 2.949 1.618 4.793zm8.132 4.008c.977 0 1.727-.348 2.25-1.043.524-.696.786-1.684.786-2.965 0-1.282-.262-2.266-.786-2.953-.523-.696-1.273-1.043-2.25-1.043-.976 0-1.73.347-2.261 1.043-.524.687-.786 1.671-.786 2.953 0 1.281.262 2.27.786 2.965.53.695 1.285 1.043 2.261 1.043zm6.54-4.008c0 1.875-.54 3.48-1.618 4.816-1.078 1.328-2.715 1.992-4.91 1.992-2.195 0-3.832-.664-4.91-1.992-1.078-1.336-1.617-2.941-1.617-4.816 0-1.844.539-3.442 1.617-4.793 1.078-1.352 2.715-2.028 4.91-2.028 2.195 0 3.832.676 4.91 2.028 1.078 1.351 1.617 2.949 1.617 4.793z" fill="#2D3748"/>
</svg>
