<svg width="14" height="11" viewBox="0 0 14 11" fill="none" xmlns="http://www.w3.org/2000/svg">
<path d="M12.5 0.3125C11.8062 0.09375 11.0437 0 10.3125 0C9.09375 0 7.78125 0.25 6.875 0.9375C5.96875 0.25 4.65625 0 3.4375 0C2.21875 0 0.90625 0.25 0 0.9375V10.0938C0 10.25 0.15625 10.4062 0.3125 10.4062C0.375 10.4062 0.40625 10.375 0.46875 10.375C1.3125 9.96875 2.53125 9.6875 3.4375 9.6875C4.65625 9.6875 5.96875 9.9375 6.875 10.625C7.71875 10.0938 9.25 9.6875 10.3125 9.6875C11.3438 9.6875 12.4062 9.875 13.2812 10.3438C13.3438 10.375 13.375 10.375 13.4375 10.375C13.5938 10.375 13.75 10.2188 13.75 10.0625V0.9375C13.375 0.65625 12.9688 0.46875 12.5 0.3125ZM12.5 8.75C11.8125 8.53125 11.0625 8.4375 10.3125 8.4375C9.25 8.4375 7.71875 8.84375 6.875 9.375V2.1875C7.71875 1.65625 9.25 1.25 10.3125 1.25C11.0625 1.25 11.8125 1.34375 12.5 1.5625V8.75Z" fill="white"/>
<path d="M10.3125 3.75C10.8625 3.75 11.3938 3.80625 11.875 3.9125V2.9625C11.3813 2.86875 10.85 2.8125 10.3125 2.8125C9.25 2.8125 8.2875 2.99375 7.5 3.33125V4.36875C8.20625 3.96875 9.1875 3.75 10.3125 3.75Z" fill="white"/>
<path d="M7.5 4.99385V6.03135C8.20625 5.63135 9.1875 5.4126 10.3125 5.4126C10.8625 5.4126 11.3938 5.46885 11.875 5.5751V4.6251C11.3813 4.53135 10.85 4.4751 10.3125 4.4751C9.25 4.4751 8.2875 4.6626 7.5 4.99385Z" fill="white"/>
<path d="M10.3125 6.1438C9.25 6.1438 8.2875 6.32505 7.5 6.66255V7.70005C8.20625 7.30005 9.1875 7.0813 10.3125 7.0813C10.8625 7.0813 11.3938 7.13755 11.875 7.2438V6.2938C11.3813 6.1938 10.85 6.1438 10.3125 6.1438Z" fill="white"/>
</svg>
