<svg width="15" height="12" viewBox="0 0 15 12" fill="none" xmlns="http://www.w3.org/2000/svg">
    <path d="M13.75 0H1.25C.562 0 0 .563 0 1.25V10c0 .688.563 1.25 1.25 1.25h12.5c.688 0 1.244-.563 1.244-1.25L15 1.25C15 .562 14.437 0 13.75 0zM5 1.875c1.037 0 1.875.837 1.875 1.875A1.872 1.872 0 0 1 5 5.625 1.872 1.872 0 0 1 3.125 3.75c0-1.038.837-1.875 1.875-1.875zm3.75 7.5h-7.5V8.75c0-1.25 2.5-1.938 3.75-1.938S8.75 7.5 8.75 8.75v.625zm2.406-2.5h1.025l.944 1.25-1.244 1.244A4.695 4.695 0 0 1 10 5.625c0-.431.063-.85.175-1.25a4.671 4.671 0 0 1 1.706-2.494l1.244 1.244-.944 1.25h-1.025a3.783 3.783 0 0 0-.219 1.25c0 .438.082.856.22 1.25z" fill="#fff"/>
</svg>
