<svg width="27" height="28" viewBox="0 0 27 28" fill="none" xmlns="http://www.w3.org/2000/svg">
<path d="M19.3794 18.8459L16.6229 16.0894C17.2865 15.2059 17.6448 14.1305 17.6436 13.0255C17.6436 10.203 15.3473 7.90674 12.5248 7.90674C9.70236 7.90674 7.40607 10.203 7.40607 13.0255C7.40607 15.8479 9.70236 18.1442 12.5248 18.1442C13.6298 18.1454 14.7052 17.7872 15.5887 17.1235L18.3452 19.8801C18.4848 20.0048 18.6668 20.0714 18.8538 20.0662C19.0409 20.0609 19.2189 19.9843 19.3512 19.8519C19.4836 19.7196 19.5602 19.5416 19.5655 19.3545C19.5707 19.1674 19.5041 18.9854 19.3794 18.8459ZM8.86857 13.0255C8.86857 12.3023 9.083 11.5955 9.48476 10.9942C9.88651 10.3929 10.4575 9.92429 11.1256 9.64755C11.7937 9.37082 12.5289 9.29841 13.2381 9.43949C13.9474 9.58057 14.5988 9.92879 15.1102 10.4401C15.6215 10.9515 15.9697 11.6029 16.1108 12.3122C16.2519 13.0214 16.1795 13.7566 15.9027 14.4247C15.626 15.0928 15.1574 15.6638 14.5561 16.0655C13.9549 16.4673 13.248 16.6817 12.5248 16.6817C11.5555 16.6806 10.6262 16.295 9.94074 15.6096C9.25531 14.9241 8.86973 13.9948 8.86857 13.0255Z" fill="#A0AEC0"/>
</svg>
