<svg width="32" height="33" viewBox="0 0 32 33" fill="none" xmlns="http://www.w3.org/2000/svg">
    <path d="M28 6.81c-1.48-.466-3.107-.666-4.667-.666-2.6 0-5.4.533-7.333 2-1.933-1.467-4.733-2-7.333-2-2.6 0-5.4.533-7.334 2v19.533c0 .334.334.667.667.667.133 0 .2-.067.333-.067 1.8-.866 4.4-1.466 6.334-1.466 2.6 0 5.4.533 7.333 2 1.8-1.134 5.067-2 7.333-2 2.2 0 4.467.4 6.334 1.4.133.066.2.066.333.066.333 0 .667-.333.667-.666V8.144c-.8-.6-1.667-1-2.667-1.333zm0 18c-1.467-.466-3.067-.666-4.667-.666-2.266 0-5.533.867-7.333 2V10.811c1.8-1.134 5.067-2 7.333-2 1.6 0 3.2.2 4.667.666v15.334z" fill="#fff"/>
    <path d="M23.333 14.144c1.174 0 2.307.12 3.334.347v-2.027c-1.054-.2-2.187-.32-3.334-.32-2.266 0-4.32.387-6 1.107v2.213c1.507-.853 3.6-1.32 6-1.32zM17.333 16.798v2.213c1.507-.853 3.6-1.32 6-1.32 1.174 0 2.307.12 3.334.347V16.01c-1.054-.2-2.187-.32-3.334-.32-2.266 0-4.32.4-6 1.107zM23.333 19.25c-2.266 0-4.32.387-6 1.108v2.213c1.507-.854 3.6-1.32 6-1.32 1.174 0 2.307.12 3.334.346v-2.026a16.93 16.93 0 0 0-3.334-.32z" fill="#fff"/>
</svg>
